<?xml version="1.0" encoding="utf-8"?>
<!-- Generator: Adobe Illustrator 16.0.0, SVG Export Plug-In . SVG Version: 6.00 Build 0)  -->
<!DOCTYPE svg PUBLIC "-//W3C//DTD SVG 1.1//EN" "http://www.w3.org/Graphics/SVG/1.1/DTD/svg11.dtd">
<svg version="1.1" id="Layer_1" xmlns="http://www.w3.org/2000/svg" xmlns:xlink="http://www.w3.org/1999/xlink" x="0px" y="0px"
	 width="209.001px" height="152.678px" viewBox="69.791 38.72 209.001 152.678"
	 enable-background="new 69.791 38.72 209.001 152.678" xml:space="preserve">
<g>
	<path d="M120.043,38.738c23.309-0.033,46.618-0.004,69.93-0.016c11.111,0.009,22.225-0.018,33.332,0.016
		c0.023,14.775,0.021,29.552,0,44.328c-2.156,0.119-4.301,0.418-6.434,0.772c-0.015-12.885,0-25.775-0.006-38.661
		c-30.127-0.004-60.256-0.004-90.383,0c-0.002,15.552,0,31.104-0.002,46.656c0.018,3.824-0.035,7.649,0.026,11.475
		c9.81-0.04,19.622-0.009,29.432-0.018c9.222,0.018,18.446-0.035,27.667,0.022c-1.59,2.063-3.182,4.129-4.521,6.369
		c-19.661,0.04-39.327-0.018-58.988,0.031c-0.095-0.59-0.048-1.186-0.055-1.775c0-13.664,0-27.326,0-40.986
		C120.052,57.543,120.003,48.141,120.043,38.738z"/>
	<path d="M148.48,52.338c2.537-0.178,5.132,0.711,7.031,2.407c2.055,1.802,3.304,4.523,3.247,7.265
		c0.068,2.917-1.362,5.799-3.65,7.594c-2.05,1.635-4.798,2.394-7.392,1.982c-2.125-0.286-4.147-1.316-5.612-2.882
		c-2.323-2.356-3.248-5.968-2.38-9.156C140.692,55.592,144.41,52.527,148.48,52.338z"/>
	<path d="M183.733,65.111c0.288-0.416,0.528-0.871,0.871-1.245c3.704,6.237,7.462,12.443,11.185,18.669
		c1.422,2.424,2.948,4.794,4.303,7.256c-3.189,1.727-6.201,3.782-8.995,6.094c-0.247,0.262-0.618,0.227-0.944,0.231
		c-16.867-0.022-33.739,0.022-50.61-0.024c0.141-0.368,0.49-0.592,0.748-0.874c6.039-6.039,12.08-12.069,18.11-18.113
		c0.156-0.136,0.345-0.427,0.583-0.24c4.224,2.108,8.446,4.224,12.669,6.332C175.707,77.185,179.703,71.137,183.733,65.111z"/>
	<g>
		<path d="M69.791,72.226c0.411-0.092,0.832-0.062,1.247-0.062c14.76,0.011,29.52-0.011,44.279,0.011l0.104,0.124
			c0.026,2.109-0.02,4.224,0.024,6.336c-8.714,0.062-17.431,0.002-26.147,0.028c-0.018,12.879-0.022,25.758,0.002,38.637
			c19.173,0.022,38.346,0.022,57.519,0c0.035-1.087-0.002-2.178,0.02-3.265c6.49,0.018,12.982,0.018,19.474,0
			c0.004,18.313,0.016,36.625-0.004,54.941c-19.437-0.04-38.874-0.005-58.311-0.018c-12.727,0.013-25.456-0.022-38.183,0.018
			C69.784,136.724,69.831,104.471,69.791,72.226z M75.317,78.751c-1.455,0.381-2.537,1.859-2.385,3.366
			c0.127,1.608,1.599,2.963,3.216,2.937c2.2,0.002,4.402,0.024,6.604-0.011c1.672-0.059,3.102-1.606,3.021-3.275
			c-0.004-1.608-1.395-3.061-3.005-3.106c-2.081-0.016-4.158,0.002-6.239-0.009C76.125,78.659,75.709,78.632,75.317,78.751z
			 M74.965,91.769c-1.312,0.51-2.209,1.94-2.022,3.349c0.161,1.514,1.514,2.783,3.041,2.833c2.011,0.026,4.024-0.002,6.037,0.013
			c0.706,0.013,1.448-0.04,2.072-0.396c1.175-0.629,1.888-2.028,1.639-3.349c-0.218-1.434-1.527-2.613-2.979-2.655
			c-2.136-0.011-4.268,0.004-6.402-0.006C75.883,91.551,75.403,91.584,74.965,91.769z M75.317,104.553
			c-1.226,0.321-2.207,1.426-2.367,2.687c-0.205,1.361,0.618,2.771,1.863,3.331c0.649,0.31,1.381,0.306,2.083,0.292
			c1.958-0.013,3.916,0.018,5.874-0.013c1.661-0.077,3.088-1.61,3.005-3.282c-0.011-1.604-1.399-3.051-3.009-3.102
			c-2.079-0.018-4.156,0.004-6.237-0.009C76.125,104.454,75.711,104.443,75.317,104.553z M75.3,117.467
			c-1.637,0.4-2.744,2.246-2.273,3.876c0.339,1.401,1.701,2.44,3.14,2.416c2.193-0.004,4.387,0.018,6.58-0.009
			c1.639-0.055,3.064-1.546,3.027-3.188c0.042-1.641-1.379-3.159-3.025-3.196c-2.013-0.018-4.026,0.004-6.039-0.004
			C76.241,117.354,75.759,117.333,75.3,117.467z M152.698,117.467c-1.797,0.438-2.88,2.592-2.129,4.292
			c0.475,1.186,1.714,2.011,2.994,1.998c2.132,0.004,4.266,0.004,6.397,0c1.698,0.04,3.269-1.479,3.21-3.192
			c0.072-1.65-1.382-3.164-3.025-3.201c-2.013-0.013-4.026,0.004-6.039-0.004C153.635,117.359,153.155,117.333,152.698,117.467z
			 M89.305,123.82c-0.024,12.879-0.02,25.756-0.002,38.635c19.173,0.004,38.348,0.004,57.521,0
			c0.018-12.879,0.022-25.756-0.002-38.635C127.648,123.796,108.476,123.796,89.305,123.82z M75.317,130.356
			c-1.283,0.334-2.288,1.521-2.385,2.845c-0.181,1.727,1.295,3.395,3.029,3.45c2.207,0.022,4.413,0.004,6.618,0.009
			c1.665,0.018,3.181-1.435,3.194-3.111c0.088-1.667-1.335-3.232-3.007-3.287c-2.018-0.018-4.035,0.004-6.055-0.009
			C76.248,130.253,75.772,130.231,75.317,130.356z M152.715,130.361c-1.531,0.378-2.611,2.006-2.343,3.562
			c0.198,1.529,1.634,2.759,3.172,2.737c2.145,0,4.288,0,6.431,0c1.659,0.022,3.208-1.43,3.192-3.111
			c0.115-1.672-1.333-3.245-3.003-3.287c-2.018-0.018-4.037,0.004-6.054-0.009C153.644,130.253,153.167,130.231,152.715,130.361z
			 M75.302,143.264c-1.538,0.393-2.629,2.037-2.334,3.605c0.224,1.453,1.54,2.643,3.016,2.683c2.193,0.018,4.387,0,6.58,0.009
			c1.705,0.035,3.254-1.492,3.212-3.201c0.044-1.646-1.384-3.15-3.027-3.197c-1.949-0.018-3.903,0.005-5.852-0.004
			C76.362,143.156,75.821,143.123,75.302,143.264z M152.698,143.269c-1.492,0.374-2.55,1.929-2.343,3.454
			c0.149,1.509,1.504,2.781,3.022,2.826c2.196,0.018,4.392,0,6.585,0.01c1.698,0.025,3.287-1.479,3.208-3.201
			c0.072-1.65-1.382-3.159-3.025-3.197c-2.013-0.018-4.024,0.005-6.037-0.004C153.635,143.152,153.155,143.137,152.698,143.269z
			 M75.317,156.158c-1.283,0.33-2.288,1.516-2.385,2.84c-0.178,1.728,1.291,3.408,3.029,3.45c2.207,0.022,4.413,0.004,6.618,0.009
			c1.665,0.026,3.181-1.439,3.194-3.111c0.088-1.668-1.342-3.223-3.007-3.287c-2.018-0.018-4.035,0.005-6.055-0.008
			C76.248,156.053,75.772,156.035,75.317,156.158z M152.715,156.158c-1.428,0.356-2.484,1.805-2.376,3.273
			c0.057,1.573,1.437,2.966,3.016,3.017c2.205,0.022,4.411,0.004,6.618,0.009c1.663,0.026,3.208-1.426,3.194-3.106
			c0.115-1.677-1.34-3.236-3.005-3.292c-2.018-0.018-4.037,0.005-6.055-0.008C153.644,156.053,153.167,156.035,152.715,156.158z"/>
	</g>
	<g>
		<path d="M224.414,88.022c10.841-0.581,21.85,2.354,30.922,8.332c6.007,3.912,11.174,9.099,15.09,15.101
			c4.354,6.664,7.131,14.351,8.026,22.262c0.994,8.663-0.196,17.587-3.542,25.647c-2.81,6.875-7.159,13.105-12.588,18.172
			c-5.285,4.915-11.602,8.732-18.435,11.064c-7.962,2.741-16.599,3.484-24.915,2.16c-7.588-1.177-14.895-4.104-21.213-8.461
			c-8.275-5.681-14.836-13.822-18.607-23.127c-2.926-7.154-4.184-14.984-3.702-22.69c0.442-7.469,2.541-14.833,6.109-21.406
			c3.298-6.096,7.837-11.519,13.255-15.837C203.184,92.519,213.697,88.537,224.414,88.022z M249.24,107.437
			c-13.596,1.582-27.191,3.124-40.783,4.719c-0.022,13.178,0.009,26.36-0.014,39.541c-3.7-1.371-7.981-1.281-11.521,0.514
			c-2.116,1.074-3.969,2.85-4.77,5.122c-0.801,2.191-0.459,4.743,0.841,6.673c1.196,1.865,3.098,3.196,5.147,3.984
			c2.356,0.919,4.957,1.091,7.447,0.73c3.006-0.479,5.955-1.977,7.737-4.5c1.067-1.514,1.536-3.398,1.424-5.233
			c-0.022-11.4,0.013-22.798-0.016-34.199c3.144-0.456,6.31-0.739,9.462-1.131c7.867-0.907,15.73-1.817,23.596-2.719
			c0,8.628,0,17.253,0,25.881c-2.669-0.911-5.58-1.222-8.35-0.585c-2.807,0.613-5.544,2.131-7.128,4.589
			c-1.163,1.749-1.546,3.991-1.015,6.028c0.512,1.934,1.783,3.625,3.404,4.782c2.439,1.78,5.528,2.548,8.522,2.407
			c3.241-0.135,6.543-1.361,8.749-3.805c1.523-1.658,2.291-3.953,2.115-6.189c-0.012-10.92-0.003-21.838-0.008-32.756
			c0.093-4.787-0.004-9.575-0.004-14.359C252.459,107.017,250.849,107.274,249.24,107.437z"/>
	</g>
</g>
</svg>
